<?xml version="1.0" encoding="UTF-8"?>
<svg id="Layer_1" data-name="Layer 1" xmlns="http://www.w3.org/2000/svg" viewBox="0 0 911.8 843.4">
  <defs>
    <style>
      .cls-1 {
        stroke: #000;
        stroke-miterlimit: 10;
        stroke-width: 1.81px;
      }
    </style>
  </defs>
  <path class="cls-1" d="m272.08,479.22l53.16,80.5-59.18,85.73c-.14.14-.36.14-.43,0l-120.68-176.89c179.28-96.46,117.71-236.36-.15-244.05v-88.33c174.93,10.66,285.68,203.79,127.28,343.04Z"/>
  <path class="cls-1" d="m711.95,167.07l-328.25,483.89h-111.4c-3.99,0-6.31-4.5-4.06-7.76l328.83-476.13h114.88Z"/>
  <polygon class="cls-1" points="910.09 167.07 581.84 650.96 461.01 650.96 795.21 167.07 910.09 167.07"/>
  <g>
    <path class="cls-1" d="m90.65,602.41h-8.78c-4.28,0-7.77,2.68-7.77,5.97v32.75h-11.73v-28.64c0-3.28-3.5-5.96-7.77-5.96h-8.94c-4.27,0-7.77,2.68-7.77,5.96v28.64h-11.65v-32.75c0-.9-.23-1.73-.78-2.51-1.16-2.03-3.8-3.46-6.99-3.46h-8.78c-3.34,0-6.21,1.67-7.22,3.94-.39.65-.55,1.31-.55,2.03v45.75c0,3.28,3.5,5.97,7.77,5.97h80.96c4.35,0,7.76-2.69,7.76-5.97v-45.75c0-3.29-3.41-5.97-7.76-5.97Zm0,51.72H9.69v-43.85c1.01,0,1.94-.11,2.95-.41l4.82-1.49h1.01v38.71h27.19v-34.6h8.94v34.6h27.27v-38.71h8.78v45.75Z"/>
    <path class="cls-1" d="m93.6,544.17l-69.3-21.53-11.73-3.64c-.94-.3-1.87-.42-2.88-.42-1.55,0-3.03.36-4.35,1.02-.54.29-1.01.65-1.48,1.01-1.24,1.07-1.94,2.51-1.94,3.94v7.69c0,2.45,1.94,4.66,4.9,5.55l52.44,15.99-52.44,15.93c-2.96.89-4.9,3.1-4.9,5.54v7.7c0,.72.16,1.43.55,2.03.46,1.19,1.55,2.21,2.87,2.92,1.32.72,2.8,1.02,4.35,1.02,1.01,0,1.94-.12,2.95-.42l4.82-1.49,8-2.51,68.14-21.18c2.95-.89,4.81-3.1,4.81-5.54v-8.06c0-2.44-1.86-4.59-4.81-5.55Zm-2.95,13.61l-74.82,23.26h-6.14v-5.79l70.62-21.47-70.62-21.54v-7.69l80.96,25.17v8.06Z"/>
    <path class="cls-1" d="m92.9,447.7h-.08c-.7-.24-1.4-.3-2.17-.3h-8.78c-1.17,0-2.18.18-3.19.54-2.72.95-4.58,3.04-4.58,5.43v32.69h-11.73v-28.58c0-3.28-3.5-5.96-7.77-5.96h-8.94c-4.27,0-7.77,2.68-7.77,5.96v28.58h-11.65v-32.69c0-2.39-1.86-4.48-4.58-5.43-.94-.36-2.02-.54-3.19-.54h-8.78c-.78,0-1.47.06-2.17.3h-.08c-3.19.71-5.52,2.98-5.52,5.67v45.75c0,1.49.7,2.86,1.94,3.94,1.4,1.25,3.5,2.03,5.83,2.03h80.96c4.35,0,7.76-2.69,7.76-5.97v-45.75c0-2.69-2.33-4.96-5.51-5.67Zm-2.25,51.42H9.69v-45.75h8.78v38.65h27.19v-34.54h8.94v34.54h27.27v-38.65h8.78v45.75Z"/>
    <path class="cls-1" d="m98.41,380.1v-8.18c0-3.28-3.41-5.96-7.76-5.96H9.69c-1.94,0-3.73.53-5.13,1.49-1.63,1.07-2.64,2.68-2.64,4.47v7.04c0,3.28,3.5,5.97,7.77,5.97h44.44l-49.02,27.68c-2.02,1.13-3.19,2.86-3.19,4.77v8.17c0,2.75,2.33,4.95,5.52,5.73h.08c.7.18,1.39.24,2.17.24h80.96c.77,0,1.47-.06,2.17-.24h.08c3.18-.78,5.51-2.98,5.51-5.73v-7.04c0-3.28-3.41-5.96-7.76-5.96h-44.6l49.18-27.62c2.02-1.14,3.18-2.93,3.18-4.83Zm-7.76,0l-68.37,38.41h68.37v7.04H9.69v-8.17l68.14-38.42H9.69v-7.04h80.96v8.18Z"/>
    <path class="cls-1" d="m90.65,311.78H26.16v-15.75c0-.36,0-.66-.15-.96-.55-2.86-3.81-5.01-7.62-5.01h-8.7c-4.27,0-7.77,2.69-7.77,5.97v50.41c0,1.79,1.01,3.4,2.64,4.47,1.4.96,3.19,1.49,5.13,1.49h8.7c2.88,0,5.36-1.19,6.68-2.98.7-.83,1.09-1.85,1.09-2.98v-15.69h64.49c4.35,0,7.76-2.69,7.76-5.97v-7.04c0-3.34-3.41-5.96-7.76-5.96Zm0,13H18.39v21.66h-8.7v-50.41h8.7v21.71h72.26v7.04Z"/>
    <path class="cls-1" d="m95.62,228.58c-2.49-4.66-6.14-8.71-10.72-12.05-3.34-2.39-7.07-4.42-11.19-6.03-1.48-.6-3.03-1.13-4.58-1.61-3.27-1.02-6.69-1.73-10.26-2.15-2.8-.36-5.75-.54-8.7-.54-1.79,0-3.5.06-5.21.18-4.89.36-9.48,1.2-13.75,2.51-.62.18-1.24.42-1.86.66-5.13,1.67-9.79,4.05-13.83,6.98-4.66,3.34-8.24,7.39-10.8,12.05-2.49,4.59-3.81,9.72-3.81,15.15s1.32,10.62,3.81,15.21c2.56,4.65,6.14,8.65,10.8,11.99.39.3.78.54,1.16.78,2.8,2.02,5.99,3.7,9.33,5.01,1.71.77,3.42,1.37,5.2,1.91,5.83,1.73,12.2,2.62,18.96,2.62s13.05-.89,18.96-2.62c5.9-1.79,11.18-4.36,15.77-7.7,4.58-3.34,8.23-7.4,10.72-11.99,2.56-4.59,3.8-9.72,3.8-15.21s-1.24-10.56-3.8-15.15Zm-7.15,28.03c-2.1,3.88-5.05,7.22-8.93,10.03-3.81,2.8-8.24,4.95-13.29,6.44-4.97,1.49-10.33,2.21-16.08,2.21s-11.19-.72-16.16-2.21c-4.97-1.49-9.32-3.64-13.21-6.44-3.81-2.81-6.76-6.15-8.93-10.03-2.1-3.87-3.19-8.17-3.19-12.88s1.09-8.95,3.19-12.83c2.17-3.88,5.12-7.22,8.93-10.02,3.89-2.8,8.24-4.95,13.21-6.44,4.97-1.49,10.41-2.27,16.16-2.27s11.11.78,16.08,2.27c5.05,1.49,9.48,3.64,13.29,6.44,3.88,2.8,6.83,6.14,8.93,10.02,2.1,3.88,3.19,8.18,3.19,12.83s-1.09,9.01-3.19,12.88Z"/>
    <path class="cls-1" d="m78.37,230.66c-2.87-3.7-6.76-6.5-11.73-8.47-4.97-1.97-10.41-2.98-16.47-2.98s-11.58,1.01-16.47,2.98c-4.9,1.97-8.78,4.77-11.73,8.47-2.88,3.64-4.35,8-4.35,13.07s1.47,9.36,4.35,13.06c2.95,3.7,6.83,6.56,11.73,8.53,4.89,1.97,10.33,2.93,16.47,2.93s11.5-.96,16.47-2.93c4.97-1.97,8.86-4.83,11.73-8.53,2.87-3.7,4.35-8.05,4.35-13.06s-1.48-9.43-4.35-13.07Zm-6.6,23.09c-2.18,2.74-5.05,4.77-8.7,6.26-3.89,1.55-8.08,2.27-12.9,2.27s-9.09-.72-12.9-2.27c-3.65-1.43-6.45-3.52-8.62-6.26-2.18-2.8-3.27-6.08-3.27-10.02s1.09-7.22,3.27-9.96c2.17-2.75,4.97-4.84,8.62-6.33,3.81-1.49,8-2.26,12.9-2.26s9.01.77,12.9,2.32c3.65,1.43,6.52,3.52,8.7,6.27,2.17,2.74,3.18,5.96,3.18,9.96s-1.09,7.22-3.18,10.02Z"/>
    <path class="cls-1" d="m91.97,143.61c-5.52-5.96-13.68-9.06-23.7-9.06-5.75,0-10.72,1.13-14.76,3.52-3.5,2.08-6.45,4.83-8.62,8.11-1.87,2.92-3.5,6.08-4.67,9.48-1.16,3.11-2.17,6.27-3.1,9.43-.86,2.86-1.79,5.49-2.8,7.81-.78,1.85-1.71,3.23-3.34,4.36-.54,0-1.17-.12-1.87-.3-.31-.06-.77-.3-1.32-.77-.31-.24-1.01-.96-1.78-2.75-.39-1.07-.94-3.16-.94-6.74,0-4.18.86-7.4,2.57-9.01,1.94-1.97,3.73-2.32,5.13-2.44,3.88-.36,6.83-2.93,6.83-5.91v-7.28c0-1.61-.85-3.22-2.41-4.35-1.47-1.02-3.41-1.61-5.36-1.61h-.46c-5.44.3-10.57,1.61-15.23,3.99-4.66,2.39-8.47,5.91-11.27,10.44-2.56,4.36-3.96,9.79-3.96,16.17,0,9.13,2.72,16.29,8,21.3,5.21,4.89,12.28,7.63,20.44,7.99.54.06,1.16.06,1.78.06,5.36,0,10.03-1.07,13.83-3.22.31-.06.55-.18.78-.36,3.5-2.09,6.29-4.83,8.47-8.17,1.86-2.87,3.42-6.03,4.58-9.43,1.09-3.1,2.1-6.2,3.03-9.24.86-2.81,1.87-5.43,2.95-7.76.78-1.79,1.71-3.16,2.8-4.12.16-.11.31-.23,1.09-.23,2.02,0,3.03.41,4.04,1.67,1.63,2.14,2.49,5.31,2.49,9.42,0,2.98-.47,5.73-1.4,8.12-.7,2.02-1.87,3.57-3.27,4.65-.7.48-1.86,1.19-4.58,1.31-4.04.18-7.23,2.8-7.23,5.97v7.27c0,.42.08.84.16,1.26.31,1.19,1.09,2.32,2.33,3.16,1.4,1.01,3.34,1.55,5.28,1.55h.63c2.25-.12,4.5-.42,6.6-.95,3.57-.66,6.91-1.79,9.94-3.35,5.13-2.5,9.09-6.32,11.89-11.21,2.64-4.59,3.88-10.26,3.88-17.3,0-8.89-2.48-16.11-7.45-21.48Zm-3.58,36.39c-2.1,3.88-5.13,6.74-8.93,8.65-3.89,1.91-8.16,2.99-12.98,3.28v-7.27c3.89-.24,7.07-1.2,9.48-3.05,2.41-1.79,4.2-4.17,5.28-7.15,1.17-2.99,1.71-6.27,1.71-9.85,0-5.25-1.16-9.42-3.57-12.47-2.41-3.1-5.98-4.59-10.72-4.59-2.88,0-5.13.72-6.92,2.27-1.78,1.55-3.18,3.58-4.35,6.14-1.16,2.51-2.17,5.31-3.1,8.29-.94,2.99-1.95,6.03-3.03,9.07-1.01,3.04-2.41,5.85-4.04,8.35-1.64,2.57-3.73,4.6-6.3,6.09-2.56,1.55-5.82,2.33-9.79,2.33-6.68,0-12.04-1.97-16.16-5.85-4.19-3.94-6.29-9.78-6.29-17.54,0-5.49,1.09-10.08,3.26-13.6,2.18-3.58,4.98-6.27,8.55-8.06,3.5-1.78,7.3-2.8,11.34-2.98v7.28c-4.04.36-7.53,1.91-10.33,4.65-2.8,2.75-4.19,6.98-4.19,12.71,0,3.52.38,6.32,1.32,8.53.85,2.21,2.02,3.88,3.49,5.01,1.4,1.19,2.88,1.97,4.43,2.39s3.03.59,4.43.59c2.72,0,4.89-.77,6.52-2.32,1.71-1.49,3.11-3.52,4.2-6.09,1.09-2.5,2.1-5.31,2.95-8.41.93-3.04,1.94-6.08,3.03-9.13,1.09-3.04,2.49-5.84,4.12-8.41,1.71-2.5,3.88-4.53,6.45-6.08,2.64-1.55,5.98-2.27,10.02-2.27,7.54,0,13.29,2.15,17.33,6.56,4.04,4.36,6.06,10.38,6.06,18.02,0,6.14-1.09,11.1-3.27,14.91Z"/>
  </g>
</svg>