<?xml version="1.0" encoding="UTF-8"?>
<svg id="Layer_1" data-name="Layer 1" xmlns="http://www.w3.org/2000/svg" xmlns:xlink="http://www.w3.org/1999/xlink" viewBox="0 0 911.79 843.4">
  <defs>
    <style>
      .cls-1 {
        fill: url(#linear-gradient-3);
      }

      .cls-1, .cls-2, .cls-3, .cls-4, .cls-5, .cls-6, .cls-7, .cls-8, .cls-9, .cls-10, .cls-11 {
        stroke: #d4145a;
        stroke-miterlimit: 10;
        stroke-width: 1.81px;
      }

      .cls-2 {
        fill: url(#linear-gradient-9);
      }

      .cls-3 {
        fill: url(#linear-gradient);
      }

      .cls-4 {
        fill: url(#linear-gradient-6);
      }

      .cls-5 {
        fill: url(#linear-gradient-2);
      }

      .cls-6 {
        fill: url(#linear-gradient-10);
      }

      .cls-7 {
        fill: url(#linear-gradient-8);
      }

      .cls-8 {
        fill: url(#linear-gradient-4);
      }

      .cls-9 {
        fill: url(#linear-gradient-7);
      }

      .cls-10 {
        fill: url(#linear-gradient-5);
      }

      .cls-11 {
        fill: url(#linear-gradient-11);
      }
    </style>
    <linearGradient id="linear-gradient" x1="103.02" y1="166.24" x2="363.66" y2="542.06" gradientUnits="userSpaceOnUse">
      <stop offset=".58" stop-color="#ccc"/>
      <stop offset=".74" stop-color="#cacaca"/>
      <stop offset=".8" stop-color="#c3c3c3"/>
      <stop offset=".85" stop-color="#b7b7b7"/>
      <stop offset=".88" stop-color="#a6a6a6"/>
      <stop offset=".91" stop-color="#909090"/>
      <stop offset=".93" stop-color="#757575"/>
      <stop offset=".96" stop-color="#545454"/>
      <stop offset=".98" stop-color="#2f2f2f"/>
      <stop offset="1" stop-color="#060606"/>
      <stop offset="1" stop-color="#000"/>
    </linearGradient>
    <linearGradient id="linear-gradient-2" x1="304.2" y1="139.92" x2="603.58" y2="571.59" gradientUnits="userSpaceOnUse">
      <stop offset=".32" stop-color="#29abe2"/>
      <stop offset="1" stop-color="#662d91"/>
    </linearGradient>
    <linearGradient id="linear-gradient-3" x1="589.1" y1="249.71" x2="306.85" y2="692.77" gradientUnits="userSpaceOnUse">
      <stop offset=".32" stop-color="#29abe2" stop-opacity="0"/>
      <stop offset=".45" stop-color="#28a5dd" stop-opacity=".03"/>
      <stop offset=".56" stop-color="#2795d0" stop-opacity=".14"/>
      <stop offset=".66" stop-color="#247bb9" stop-opacity=".32"/>
      <stop offset=".76" stop-color="#21559a" stop-opacity=".57"/>
      <stop offset=".86" stop-color="#1c2572" stop-opacity=".89"/>
      <stop offset=".89" stop-color="#1b1464"/>
    </linearGradient>
    <linearGradient id="linear-gradient-4" x1="490.27" y1="127.46" x2="789.66" y2="559.13" gradientUnits="userSpaceOnUse">
      <stop offset=".35" stop-color="#29abe2"/>
      <stop offset="1" stop-color="#662d91"/>
    </linearGradient>
    <linearGradient id="linear-gradient-5" x1="1.92" y1="631.25" x2="98.41" y2="631.25" xlink:href="#linear-gradient-4"/>
    <linearGradient id="linear-gradient-6" x1="1.92" y1="553.75" x2="98.41" y2="553.75" xlink:href="#linear-gradient-4"/>
    <linearGradient id="linear-gradient-7" x1="1.92" y1="476.24" x2="98.41" y2="476.24" xlink:href="#linear-gradient-4"/>
    <linearGradient id="linear-gradient-8" x1="1.92" y1="398.74" x2="98.41" y2="398.74" xlink:href="#linear-gradient-4"/>
    <linearGradient id="linear-gradient-9" x1="1.92" y1="321.23" x2="98.41" y2="321.23" xlink:href="#linear-gradient-4"/>
    <linearGradient id="linear-gradient-10" x1=".91" y1="243.73" x2="99.42" y2="243.73" xlink:href="#linear-gradient-4"/>
    <linearGradient id="linear-gradient-11" x1=".91" y1="166.22" x2="99.42" y2="166.22" xlink:href="#linear-gradient-4"/>
  </defs>
  <path class="cls-3" d="m272.08,479.22l53.16,80.5-59.18,85.72c-.15.14-.36.14-.44,0l-120.68-176.89c179.28-96.46,117.71-236.36-.15-244.05v-88.34c174.93,10.66,285.68,203.8,127.28,343.04Z"/>
  <path class="cls-5" d="m711.94,167.07l-328.25,483.89h-111.4c-3.99,0-6.31-4.5-4.06-7.76l328.83-476.13h114.88Z"/>
  <path class="cls-1" d="m711.94,167.07l-328.25,483.89h-111.4c-3.99,0-6.31-4.5-4.06-7.76l328.83-476.13h114.88Z"/>
  <polygon class="cls-8" points="910.08 167.07 581.83 650.96 461.01 650.96 795.2 167.07 910.08 167.07"/>
  <g>
    <path class="cls-10" d="m90.64,602.41h-8.78c-4.27,0-7.77,2.68-7.77,5.97v32.75h-11.73v-28.63c0-3.28-3.5-5.97-7.77-5.97h-8.93c-4.27,0-7.77,2.68-7.77,5.97v28.63h-11.65v-32.75c0-.89-.23-1.73-.78-2.51-1.17-2.03-3.81-3.46-6.99-3.46h-8.78c-3.34,0-6.22,1.67-7.23,3.94-.39.66-.54,1.31-.54,2.03v45.76c0,3.28,3.5,5.97,7.77,5.97h80.95c4.35,0,7.77-2.68,7.77-5.97v-45.76c0-3.28-3.42-5.97-7.77-5.97Zm0,51.72H9.69v-43.85c1.01,0,1.94-.12,2.95-.42l4.82-1.49h1.01v38.72h27.19v-34.6h8.93v34.6h27.27v-38.72h8.78v45.76Z"/>
    <path class="cls-4" d="m93.59,544.17l-69.3-21.54-11.73-3.64c-.93-.3-1.86-.42-2.88-.42-1.55,0-3.03.36-4.35,1.01-.54.3-1.01.66-1.48,1.01-1.24,1.07-1.94,2.51-1.94,3.94v7.7c0,2.45,1.94,4.65,4.89,5.55l52.44,15.99-52.44,15.93c-2.95.89-4.89,3.1-4.89,5.55v7.7c0,.72.16,1.43.54,2.03.47,1.19,1.55,2.21,2.87,2.92,1.32.72,2.8,1.01,4.35,1.01,1.01,0,1.94-.12,2.95-.42l4.82-1.49,8-2.51,68.14-21.18c2.95-.89,4.82-3.1,4.82-5.55v-8.05c0-2.45-1.86-4.59-4.82-5.55Zm-2.95,13.6l-74.82,23.27h-6.14v-5.79l70.62-21.48-70.62-21.54v-7.7l80.95,25.17v8.05Z"/>
    <path class="cls-9" d="m92.89,447.7h-.08c-.7-.24-1.4-.3-2.18-.3h-8.78c-1.17,0-2.18.18-3.19.54-2.72.95-4.58,3.04-4.58,5.43v32.69h-11.73v-28.58c0-3.28-3.5-5.97-7.77-5.97h-8.93c-4.27,0-7.77,2.68-7.77,5.97v28.58h-11.65v-32.69c0-2.39-1.86-4.47-4.58-5.43-.93-.36-2.02-.54-3.19-.54h-8.78c-.78,0-1.48.06-2.18.3h-.08c-3.19.72-5.52,2.98-5.52,5.67v45.76c0,1.49.7,2.86,1.94,3.94,1.4,1.25,3.5,2.03,5.83,2.03h80.95c4.35,0,7.77-2.68,7.77-5.97v-45.76c0-2.68-2.33-4.95-5.52-5.67Zm-2.25,51.42H9.69v-45.76h8.78v38.66h27.19v-34.54h8.93v34.54h27.27v-38.66h8.78v45.76Z"/>
    <path class="cls-7" d="m98.41,380.1v-8.17c0-3.28-3.42-5.97-7.77-5.97H9.69c-1.94,0-3.73.54-5.13,1.49-1.63,1.07-2.64,2.68-2.64,4.47v7.04c0,3.28,3.5,5.97,7.77,5.97h44.44l-49.02,27.68c-2.02,1.13-3.19,2.86-3.19,4.77v8.17c0,2.74,2.33,4.95,5.52,5.73h.08c.7.18,1.4.24,2.18.24h80.95c.78,0,1.48-.06,2.18-.24h.08c3.19-.78,5.52-2.98,5.52-5.73v-7.04c0-3.28-3.42-5.97-7.77-5.97h-44.59l49.18-27.62c2.02-1.13,3.19-2.92,3.19-4.83Zm-7.77,0l-68.37,38.42h68.37v7.04H9.69v-8.17l68.14-38.42H9.69v-7.04h80.95v8.17Z"/>
    <path class="cls-2" d="m90.64,311.78H26.16v-15.75c0-.36,0-.66-.16-.95-.54-2.86-3.81-5.01-7.61-5.01h-8.7c-4.27,0-7.77,2.68-7.77,5.97v50.41c0,1.79,1.01,3.4,2.64,4.47,1.4.95,3.19,1.49,5.13,1.49h8.7c2.87,0,5.36-1.19,6.68-2.98.7-.84,1.09-1.85,1.09-2.98v-15.69h64.48c4.35,0,7.77-2.68,7.77-5.97v-7.04c0-3.34-3.42-5.97-7.77-5.97Zm0,13H18.39v21.66h-8.7v-50.41h8.7v21.71h72.25v7.04Z"/>
    <path class="cls-6" d="m78.36,230.66c-2.87-3.7-6.76-6.5-11.73-8.47-4.97-1.97-10.41-2.98-16.47-2.98s-11.58,1.01-16.47,2.98c-4.89,1.97-8.78,4.77-11.73,8.47-2.87,3.64-4.35,7.99-4.35,13.06s1.48,9.37,4.35,13.06c2.95,3.7,6.84,6.56,11.73,8.53s10.33,2.92,16.47,2.92,11.5-.95,16.47-2.92c4.97-1.97,8.86-4.83,11.73-8.53,2.87-3.7,4.35-8.05,4.35-13.06s-1.48-9.43-4.35-13.06Zm-6.6,23.09c-2.18,2.74-5.05,4.77-8.7,6.26-3.88,1.55-8.08,2.27-12.9,2.27s-9.09-.72-12.9-2.27c-3.65-1.43-6.45-3.52-8.62-6.26-2.18-2.8-3.26-6.08-3.26-10.02s1.09-7.22,3.26-9.96c2.18-2.74,4.97-4.83,8.62-6.32,3.81-1.49,8-2.27,12.9-2.27s9.01.78,12.9,2.33c3.65,1.43,6.53,3.52,8.7,6.26,2.18,2.74,3.19,5.97,3.19,9.96s-1.09,7.22-3.19,10.02Zm6.6-23.09c-2.87-3.7-6.76-6.5-11.73-8.47-4.97-1.97-10.41-2.98-16.47-2.98s-11.58,1.01-16.47,2.98c-4.89,1.97-8.78,4.77-11.73,8.47-2.87,3.64-4.35,7.99-4.35,13.06s1.48,9.37,4.35,13.06c2.95,3.7,6.84,6.56,11.73,8.53s10.33,2.92,16.47,2.92,11.5-.95,16.47-2.92c4.97-1.97,8.86-4.83,11.73-8.53,2.87-3.7,4.35-8.05,4.35-13.06s-1.48-9.43-4.35-13.06Zm-6.6,23.09c-2.18,2.74-5.05,4.77-8.7,6.26-3.88,1.55-8.08,2.27-12.9,2.27s-9.09-.72-12.9-2.27c-3.65-1.43-6.45-3.52-8.62-6.26-2.18-2.8-3.26-6.08-3.26-10.02s1.09-7.22,3.26-9.96c2.18-2.74,4.97-4.83,8.62-6.32,3.81-1.49,8-2.27,12.9-2.27s9.01.78,12.9,2.33c3.65,1.43,6.53,3.52,8.7,6.26,2.18,2.74,3.19,5.97,3.19,9.96s-1.09,7.22-3.19,10.02Zm6.6-23.09c-2.87-3.7-6.76-6.5-11.73-8.47-4.97-1.97-10.41-2.98-16.47-2.98s-11.58,1.01-16.47,2.98c-4.89,1.97-8.78,4.77-11.73,8.47-2.87,3.64-4.35,7.99-4.35,13.06s1.48,9.37,4.35,13.06c2.95,3.7,6.84,6.56,11.73,8.53s10.33,2.92,16.47,2.92,11.5-.95,16.47-2.92c4.97-1.97,8.86-4.83,11.73-8.53,2.87-3.7,4.35-8.05,4.35-13.06s-1.48-9.43-4.35-13.06Zm-6.6,23.09c-2.18,2.74-5.05,4.77-8.7,6.26-3.88,1.55-8.08,2.27-12.9,2.27s-9.09-.72-12.9-2.27c-3.65-1.43-6.45-3.52-8.62-6.26-2.18-2.8-3.26-6.08-3.26-10.02s1.09-7.22,3.26-9.96c2.18-2.74,4.97-4.83,8.62-6.32,3.81-1.49,8-2.27,12.9-2.27s9.01.78,12.9,2.33c3.65,1.43,6.53,3.52,8.7,6.26,2.18,2.74,3.19,5.97,3.19,9.96s-1.09,7.22-3.19,10.02Zm6.6-23.09c-2.87-3.7-6.76-6.5-11.73-8.47-4.97-1.97-10.41-2.98-16.47-2.98s-11.58,1.01-16.47,2.98c-4.89,1.97-8.78,4.77-11.73,8.47-2.87,3.64-4.35,7.99-4.35,13.06s1.48,9.37,4.35,13.06c2.95,3.7,6.84,6.56,11.73,8.53s10.33,2.92,16.47,2.92,11.5-.95,16.47-2.92c4.97-1.97,8.86-4.83,11.73-8.53,2.87-3.7,4.35-8.05,4.35-13.06s-1.48-9.43-4.35-13.06Zm-6.6,23.09c-2.18,2.74-5.05,4.77-8.7,6.26-3.88,1.55-8.08,2.27-12.9,2.27s-9.09-.72-12.9-2.27c-3.65-1.43-6.45-3.52-8.62-6.26-2.18-2.8-3.26-6.08-3.26-10.02s1.09-7.22,3.26-9.96c2.18-2.74,4.97-4.83,8.62-6.32,3.81-1.49,8-2.27,12.9-2.27s9.01.78,12.9,2.33c3.65,1.43,6.53,3.52,8.7,6.26,2.18,2.74,3.19,5.97,3.19,9.96s-1.09,7.22-3.19,10.02Zm6.6-23.09c-2.87-3.7-6.76-6.5-11.73-8.47-4.97-1.97-10.41-2.98-16.47-2.98s-11.58,1.01-16.47,2.98c-4.89,1.97-8.78,4.77-11.73,8.47-2.87,3.64-4.35,7.99-4.35,13.06s1.48,9.37,4.35,13.06c2.95,3.7,6.84,6.56,11.73,8.53s10.33,2.92,16.47,2.92,11.5-.95,16.47-2.92c4.97-1.97,8.86-4.83,11.73-8.53,2.87-3.7,4.35-8.05,4.35-13.06s-1.48-9.43-4.35-13.06Zm-6.6,23.09c-2.18,2.74-5.05,4.77-8.7,6.26-3.88,1.55-8.08,2.27-12.9,2.27s-9.09-.72-12.9-2.27c-3.65-1.43-6.45-3.52-8.62-6.26-2.18-2.8-3.26-6.08-3.26-10.02s1.09-7.22,3.26-9.96c2.18-2.74,4.97-4.83,8.62-6.32,3.81-1.49,8-2.27,12.9-2.27s9.01.78,12.9,2.33c3.65,1.43,6.53,3.52,8.7,6.26,2.18,2.74,3.19,5.97,3.19,9.96s-1.09,7.22-3.19,10.02Zm6.6-23.09c-2.87-3.7-6.76-6.5-11.73-8.47-4.97-1.97-10.41-2.98-16.47-2.98s-11.58,1.01-16.47,2.98c-4.89,1.97-8.78,4.77-11.73,8.47-2.87,3.64-4.35,7.99-4.35,13.06s1.48,9.37,4.35,13.06c2.95,3.7,6.84,6.56,11.73,8.53s10.33,2.92,16.47,2.92,11.5-.95,16.47-2.92c4.97-1.97,8.86-4.83,11.73-8.53,2.87-3.7,4.35-8.05,4.35-13.06s-1.48-9.43-4.35-13.06Zm-6.6,23.09c-2.18,2.74-5.05,4.77-8.7,6.26-3.88,1.55-8.08,2.27-12.9,2.27s-9.09-.72-12.9-2.27c-3.65-1.43-6.45-3.52-8.62-6.26-2.18-2.8-3.26-6.08-3.26-10.02s1.09-7.22,3.26-9.96c2.18-2.74,4.97-4.83,8.62-6.32,3.81-1.49,8-2.27,12.9-2.27s9.01.78,12.9,2.33c3.65,1.43,6.53,3.52,8.7,6.26,2.18,2.74,3.19,5.97,3.19,9.96s-1.09,7.22-3.19,10.02Zm23.85-25.17c-2.49-4.65-6.14-8.71-10.72-12.05-3.34-2.39-7.07-4.41-11.19-6.03-1.48-.6-3.03-1.13-4.58-1.61-3.26-1.01-6.68-1.73-10.26-2.15-2.8-.36-5.75-.54-8.7-.54-1.79,0-3.5.06-5.21.18-4.89.36-9.48,1.19-13.75,2.51-.62.18-1.24.42-1.86.66-5.13,1.67-9.79,4.06-13.83,6.98-4.66,3.34-8.24,7.4-10.8,12.05-2.49,4.59-3.81,9.72-3.81,15.15s1.32,10.62,3.81,15.21c2.56,4.65,6.14,8.65,10.8,11.99.39.3.78.54,1.17.78,2.8,2.03,5.98,3.7,9.32,5.01,1.71.78,3.42,1.37,5.21,1.91,5.83,1.73,12.2,2.62,18.96,2.62s13.05-.89,18.96-2.62c5.9-1.79,11.19-4.35,15.77-7.7,4.58-3.34,8.24-7.4,10.72-11.99,2.56-4.59,3.81-9.72,3.81-15.21s-1.24-10.56-3.81-15.15Zm-7.15,28.04c-2.1,3.88-5.05,7.22-8.93,10.02-3.81,2.8-8.24,4.95-13.29,6.44-4.97,1.49-10.33,2.21-16.08,2.21s-11.19-.72-16.16-2.21c-4.97-1.49-9.32-3.64-13.21-6.44-3.81-2.8-6.76-6.14-8.93-10.02-2.1-3.88-3.19-8.17-3.19-12.89s1.09-8.95,3.19-12.83c2.18-3.88,5.13-7.22,8.93-10.02,3.88-2.8,8.24-4.95,13.21-6.44,4.97-1.49,10.41-2.27,16.16-2.27s11.11.78,16.08,2.27c5.05,1.49,9.48,3.64,13.29,6.44,3.88,2.8,6.84,6.14,8.93,10.02,2.1,3.88,3.19,8.17,3.19,12.83s-1.09,9.01-3.19,12.89Zm-21.83-34.42c-4.97-1.97-10.41-2.98-16.47-2.98s-11.58,1.01-16.47,2.98c-4.89,1.97-8.78,4.77-11.73,8.47-2.87,3.64-4.35,7.99-4.35,13.06s1.48,9.37,4.35,13.06c2.95,3.7,6.84,6.56,11.73,8.53s10.33,2.92,16.47,2.92,11.5-.95,16.47-2.92c4.97-1.97,8.86-4.83,11.73-8.53,2.87-3.7,4.35-8.05,4.35-13.06s-1.48-9.43-4.35-13.06c-2.87-3.7-6.76-6.5-11.73-8.47Zm5.13,31.56c-2.18,2.74-5.05,4.77-8.7,6.26-3.88,1.55-8.08,2.27-12.9,2.27s-9.09-.72-12.9-2.27c-3.65-1.43-6.45-3.52-8.62-6.26-2.18-2.8-3.26-6.08-3.26-10.02s1.09-7.22,3.26-9.96c2.18-2.74,4.97-4.83,8.62-6.32,3.81-1.49,8-2.27,12.9-2.27s9.01.78,12.9,2.33c3.65,1.43,6.53,3.52,8.7,6.26,2.18,2.74,3.19,5.97,3.19,9.96s-1.09,7.22-3.19,10.02Zm6.6-23.09c-2.87-3.7-6.76-6.5-11.73-8.47-4.97-1.97-10.41-2.98-16.47-2.98s-11.58,1.01-16.47,2.98c-4.89,1.97-8.78,4.77-11.73,8.47-2.87,3.64-4.35,7.99-4.35,13.06s1.48,9.37,4.35,13.06c2.95,3.7,6.84,6.56,11.73,8.53s10.33,2.92,16.47,2.92,11.5-.95,16.47-2.92c4.97-1.97,8.86-4.83,11.73-8.53,2.87-3.7,4.35-8.05,4.35-13.06s-1.48-9.43-4.35-13.06Zm-6.6,23.09c-2.18,2.74-5.05,4.77-8.7,6.26-3.88,1.55-8.08,2.27-12.9,2.27s-9.09-.72-12.9-2.27c-3.65-1.43-6.45-3.52-8.62-6.26-2.18-2.8-3.26-6.08-3.26-10.02s1.09-7.22,3.26-9.96c2.18-2.74,4.97-4.83,8.62-6.32,3.81-1.49,8-2.27,12.9-2.27s9.01.78,12.9,2.33c3.65,1.43,6.53,3.52,8.7,6.26,2.18,2.74,3.19,5.97,3.19,9.96s-1.09,7.22-3.19,10.02Zm6.6-23.09c-2.87-3.7-6.76-6.5-11.73-8.47-4.97-1.97-10.41-2.98-16.47-2.98s-11.58,1.01-16.47,2.98c-4.89,1.97-8.78,4.77-11.73,8.47-2.87,3.64-4.35,7.99-4.35,13.06s1.48,9.37,4.35,13.06c2.95,3.7,6.84,6.56,11.73,8.53s10.33,2.92,16.47,2.92,11.5-.95,16.47-2.92c4.97-1.97,8.86-4.83,11.73-8.53,2.87-3.7,4.35-8.05,4.35-13.06s-1.48-9.43-4.35-13.06Zm-6.6,23.09c-2.18,2.74-5.05,4.77-8.7,6.26-3.88,1.55-8.08,2.27-12.9,2.27s-9.09-.72-12.9-2.27c-3.65-1.43-6.45-3.52-8.62-6.26-2.18-2.8-3.26-6.08-3.26-10.02s1.09-7.22,3.26-9.96c2.18-2.74,4.97-4.83,8.62-6.32,3.81-1.49,8-2.27,12.9-2.27s9.01.78,12.9,2.33c3.65,1.43,6.53,3.52,8.7,6.26,2.18,2.74,3.19,5.97,3.19,9.96s-1.09,7.22-3.19,10.02Zm6.6-23.09c-2.87-3.7-6.76-6.5-11.73-8.47-4.97-1.97-10.41-2.98-16.47-2.98s-11.58,1.01-16.47,2.98c-4.89,1.97-8.78,4.77-11.73,8.47-2.87,3.64-4.35,7.99-4.35,13.06s1.48,9.37,4.35,13.06c2.95,3.7,6.84,6.56,11.73,8.53s10.33,2.92,16.47,2.92,11.5-.95,16.47-2.92c4.97-1.97,8.86-4.83,11.73-8.53,2.87-3.7,4.35-8.05,4.35-13.06s-1.48-9.43-4.35-13.06Zm-6.6,23.09c-2.18,2.74-5.05,4.77-8.7,6.26-3.88,1.55-8.08,2.27-12.9,2.27s-9.09-.72-12.9-2.27c-3.65-1.43-6.45-3.52-8.62-6.26-2.18-2.8-3.26-6.08-3.26-10.02s1.09-7.22,3.26-9.96c2.18-2.74,4.97-4.83,8.62-6.32,3.81-1.49,8-2.27,12.9-2.27s9.01.78,12.9,2.33c3.65,1.43,6.53,3.52,8.7,6.26,2.18,2.74,3.19,5.97,3.19,9.96s-1.09,7.22-3.19,10.02Zm6.6-23.09c-2.87-3.7-6.76-6.5-11.73-8.47-4.97-1.97-10.41-2.98-16.47-2.98s-11.58,1.01-16.47,2.98c-4.89,1.97-8.78,4.77-11.73,8.47-2.87,3.64-4.35,7.99-4.35,13.06s1.48,9.37,4.35,13.06c2.95,3.7,6.84,6.56,11.73,8.53s10.33,2.92,16.47,2.92,11.5-.95,16.47-2.92c4.97-1.97,8.86-4.83,11.73-8.53,2.87-3.7,4.35-8.05,4.35-13.06s-1.48-9.43-4.35-13.06Zm-6.6,23.09c-2.18,2.74-5.05,4.77-8.7,6.26-3.88,1.55-8.08,2.27-12.9,2.27s-9.09-.72-12.9-2.27c-3.65-1.43-6.45-3.52-8.62-6.26-2.18-2.8-3.26-6.08-3.26-10.02s1.09-7.22,3.26-9.96c2.18-2.74,4.97-4.83,8.62-6.32,3.81-1.49,8-2.27,12.9-2.27s9.01.78,12.9,2.33c3.65,1.43,6.53,3.52,8.7,6.26,2.18,2.74,3.19,5.97,3.19,9.96s-1.09,7.22-3.19,10.02Z"/>
    <path class="cls-11" d="m91.96,143.61c-5.52-5.97-13.67-9.07-23.7-9.07-5.75,0-10.72,1.13-14.76,3.52-3.5,2.09-6.45,4.83-8.62,8.11-1.86,2.92-3.5,6.08-4.66,9.49-1.17,3.1-2.18,6.26-3.11,9.43-.85,2.86-1.79,5.49-2.8,7.81-.78,1.85-1.71,3.22-3.34,4.35-.54,0-1.17-.12-1.86-.3-.31-.06-.78-.3-1.32-.78-.31-.24-1.01-.95-1.79-2.74-.39-1.07-.93-3.16-.93-6.74,0-4.18.85-7.4,2.56-9.01,1.94-1.97,3.73-2.33,5.13-2.45,3.88-.36,6.84-2.92,6.84-5.91v-7.28c0-1.61-.85-3.22-2.41-4.35-1.48-1.01-3.42-1.61-5.36-1.61h-.47c-5.44.3-10.57,1.61-15.23,4-4.66,2.39-8.47,5.91-11.27,10.44-2.56,4.35-3.96,9.78-3.96,16.17,0,9.13,2.72,16.29,8,21.3,5.21,4.89,12.28,7.64,20.43,7.99.54.06,1.17.06,1.79.06,5.36,0,10.02-1.07,13.83-3.22.31-.06.54-.18.78-.36,3.5-2.09,6.29-4.83,8.47-8.17,1.86-2.86,3.42-6.03,4.58-9.43,1.09-3.1,2.1-6.2,3.03-9.25.85-2.8,1.86-5.43,2.95-7.76.78-1.79,1.71-3.16,2.8-4.12.16-.12.31-.24,1.09-.24,2.02,0,3.03.42,4.04,1.67,1.63,2.15,2.49,5.31,2.49,9.43,0,2.98-.47,5.73-1.4,8.11-.7,2.03-1.86,3.58-3.26,4.65-.7.48-1.86,1.19-4.58,1.31-4.04.18-7.23,2.8-7.23,5.97v7.28c0,.42.08.83.16,1.25.31,1.19,1.09,2.33,2.33,3.16,1.4,1.01,3.34,1.55,5.28,1.55h.62c2.25-.12,4.51-.42,6.6-.95,3.57-.66,6.91-1.79,9.94-3.34,5.13-2.51,9.09-6.32,11.89-11.22,2.64-4.59,3.88-10.26,3.88-17.3,0-8.89-2.49-16.11-7.46-21.48Zm-3.57,36.39c-2.1,3.88-5.13,6.74-8.93,8.65-3.88,1.91-8.16,2.98-12.97,3.28v-7.28c3.88-.24,7.07-1.19,9.48-3.04,2.41-1.79,4.2-4.18,5.28-7.16,1.17-2.98,1.71-6.26,1.71-9.84,0-5.25-1.17-9.43-3.57-12.47-2.41-3.1-5.98-4.59-10.72-4.59-2.87,0-5.13.72-6.91,2.27-1.79,1.55-3.19,3.58-4.35,6.14-1.17,2.51-2.18,5.31-3.11,8.29-.93,2.98-1.94,6.03-3.03,9.07-1.01,3.04-2.41,5.85-4.04,8.35-1.63,2.57-3.73,4.59-6.29,6.08-2.56,1.55-5.83,2.33-9.79,2.33-6.68,0-12.04-1.97-16.16-5.85-4.2-3.94-6.29-9.78-6.29-17.54,0-5.49,1.09-10.08,3.26-13.6,2.18-3.58,4.97-6.26,8.55-8.05,3.5-1.79,7.3-2.8,11.34-2.98v7.28c-4.04.36-7.54,1.91-10.33,4.65-2.8,2.74-4.2,6.98-4.2,12.71,0,3.52.39,6.32,1.32,8.53.85,2.21,2.02,3.88,3.5,5.01,1.4,1.19,2.87,1.97,4.43,2.39,1.55.42,3.03.6,4.43.6,2.72,0,4.89-.78,6.53-2.33,1.71-1.49,3.11-3.52,4.2-6.08,1.09-2.51,2.1-5.31,2.95-8.41.93-3.04,1.94-6.08,3.03-9.13,1.09-3.04,2.49-5.85,4.12-8.41,1.71-2.51,3.88-4.53,6.45-6.08,2.64-1.55,5.98-2.27,10.02-2.27,7.54,0,13.28,2.15,17.32,6.56,4.04,4.35,6.06,10.38,6.06,18.02,0,6.14-1.09,11.1-3.26,14.91Z"/>
  </g>
</svg>